HIERARCHY
ROOT Hips
{
	OFFSET -0.001795 -0.223333 0.028219
	CHANNELS 6 Xposition Yposition Zposition Zrotation Yrotation Xrotation 
	JOINT LeftUpLeg
	{
		OFFSET 0.069520 -0.091406 -0.006815
		CHANNELS 3 Zrotation Yrotation Xrotation
		JOINT LeftLeg
		{
			OFFSET 0.034277 -0.375199 -0.004496
			CHANNELS 3 Zrotation Yrotation Xrotation
			JOINT LeftFoot
			{
				OFFSET -0.013596 -0.397961 -0.043693
				CHANNELS 3 Zrotation Yrotation Xrotation
				JOINT LeftToe
				{
					OFFSET 0.026358 -0.055791 0.119288
					CHANNELS 3 Zrotation Yrotation Xrotation
					End Site
					{
						OFFSET 0.000000 0.000000 0.000000
					}
				}
			}
		}
	}
	JOINT RightUpLeg
	{
		OFFSET -0.067670 -0.090522 -0.004320
		CHANNELS 3 Zrotation Yrotation Xrotation
		JOINT RightLeg
		{
			OFFSET -0.038290 -0.382569 -0.008850
			CHANNELS 3 Zrotation Yrotation Xrotation
			JOINT RightFoot
			{
				OFFSET 0.015774 -0.398415 -0.042312
				CHANNELS 3 Zrotation Yrotation Xrotation
				JOINT RightToe
				{
					OFFSET -0.025372 -0.048144 0.123348
					CHANNELS 3 Zrotation Yrotation Xrotation
					End Site
					{
						OFFSET 0.000000 0.000000 0.000000
					}
				}
			}
		}
	}
	JOINT Spine
	{
		OFFSET -0.002533 0.108963 -0.026696
		CHANNELS 3 Zrotation Yrotation Xrotation
		JOINT Spine1
		{
			OFFSET 0.005487 0.135180 0.001092
			CHANNELS 3 Zrotation Yrotation Xrotation
			JOINT Spine2
			{
				OFFSET 0.001457 0.052922 0.025425
				CHANNELS 3 Zrotation Yrotation Xrotation
				JOINT Neck
				{
					OFFSET -0.002778 0.213870 -0.042857
					CHANNELS 3 Zrotation Yrotation Xrotation
					JOINT Head
					{
						OFFSET 0.005152 0.064970 0.051349
						CHANNELS 3 Zrotation Yrotation Xrotation
						End Site
						{
							OFFSET 0.000000 0.000000 0.000000
						}
					}
				}
				JOINT LeftShoulder
				{
					OFFSET 0.078845 0.121749 -0.034090
					CHANNELS 3 Zrotation Yrotation Xrotation
					JOINT LeftArm
					{
						OFFSET 0.090977 0.030469 -0.008868
						CHANNELS 3 Zrotation Yrotation Xrotation
						JOINT LeftForeArm
						{
							OFFSET 0.259612 -0.012772 -0.027456
							CHANNELS 3 Zrotation Yrotation Xrotation
							JOINT LeftHand
							{
								OFFSET 0.249234 0.008986 -0.001171
								CHANNELS 3 Zrotation Yrotation Xrotation
								End Site
								{
									OFFSET 0.000000 0.000000 0.000000
								}
							}
						}
					}
				}
				JOINT RightShoulder
				{
					OFFSET -0.081759 0.118833 -0.038615
					CHANNELS 3 Zrotation Yrotation Xrotation
					JOINT RightArm
					{
						OFFSET -0.096012 0.032551 -0.009143
						CHANNELS 3 Zrotation Yrotation Xrotation
						JOINT RightForeArm
						{
							OFFSET -0.253742 -0.013329 -0.021401
							CHANNELS 3 Zrotation Yrotation Xrotation
							JOINT RightHand
							{
								OFFSET -0.255298 0.007772 -0.005559
								CHANNELS 3 Zrotation Yrotation Xrotation
								End Site
								{
									OFFSET 0.000000 0.000000 0.000000
								}
							}
						}
					}
				}
			}
		}
	}
}
MOTION
Frames: 7
Frame Time: 0.050000
0.000000 0.940552 0.000000 -0.567648 -2.202518 7.212351 6.685831 -0.314206 -4.373541 0.179504 0.138577 -4.430207 1.882316 6.722947 9.211090 0.000000 0.000000 0.000000 -4.477817 0.550403 -5.642738 -1.561848 0.016566 -2.583318 -0.824347 -5.901124 9.159481 0.000000 0.000000 0.000000 5.272037 0.360391 -5.979147 -2.432294 1.119949 -5.409563 -3.617486 4.623212 6.284262 4.790612 -2.048381 -11.167460 0.000000 0.000000 0.000000 -15.130259 0.836617 -2.577343 -55.877304 -7.619503 -3.220147 -8.496980 -14.757064 1.546748 0.000000 0.000000 0.000000 12.901579 -7.571607 -4.164584 63.474937 4.292766 -3.672372 9.505961 19.355451 2.252977 0.000000 0.000000 0.000000 
0.000137 0.940009 0.000469 -0.779209 -3.012548 8.104927 6.640682 -0.308184 -4.061204 0.655592 0.168387 -5.962015 2.218308 7.368233 9.836501 0.000000 0.000000 0.000000 -4.474217 0.640593 -6.816472 -1.593656 0.032727 -2.266336 -0.172553 -4.882767 9.713551 0.000000 0.000000 0.000000 6.439590 0.489547 -7.105735 -3.279111 1.461128 -5.120455 -4.160595 5.291808 5.710047 4.287249 -1.671470 -11.184449 0.000000 0.000000 0.000000 -16.346461 1.523077 -3.191818 -54.699719 -7.758444 -2.983434 -9.165387 -14.419389 1.580585 0.000000 0.000000 0.000000 12.714156 -8.741623 -4.678823 64.305304 3.368215 -4.092776 9.708701 19.317625 2.285994 0.000000 0.000000 0.000000 
0.000246 0.939994 0.000628 -0.433737 -2.578193 7.946852 6.303703 -0.327592 -4.424902 0.943757 0.089786 -4.571371 1.781029 6.359811 8.632170 0.000000 0.000000 0.000000 -4.756343 0.636961 -6.902414 -1.676015 0.050350 -2.085723 -0.868837 -6.148407 9.491461 0.000000 0.000000 0.000000 6.138043 0.464109 -6.946531 -3.125271 1.389510 -6.202801 -4.499627 4.789604 6.469658 3.750299 -1.396228 -10.764654 0.000000 0.000000 0.000000 -16.229662 1.107561 -2.896958 -54.819061 -7.675728 -3.116459 -8.457750 -13.950920 1.456337 0.000000 0.000000 0.000000 13.754015 -8.142420 -4.538730 63.217091 3.158753 -4.309713 9.519971 19.631530 2.299727 0.000000 0.000000 0.000000 
0.000247 0.940187 0.000755 -0.388031 -2.489884 8.541726 6.404918 -0.350857 -4.825141 0.629445 0.129257 -4.984381 1.624221 6.196177 9.041717 0.000000 0.000000 0.000000 -4.879128 0.694205 -7.774320 -1.641268 0.042360 -2.180262 -1.008537 -6.666839 10.250054 0.000000 0.000000 0.000000 6.266860 0.511888 -7.519861 -3.583839 1.585086 -5.576778 -4.297055 4.042247 5.307902 2.925593 -1.050438 -9.451370 0.000000 0.000000 0.000000 -16.333562 1.870209 -3.179021 -55.368771 -8.622792 -2.594048 -7.456570 -12.971769 1.250686 0.000000 0.000000 0.000000 12.593562 -8.449247 -4.653388 63.613357 2.720181 -4.442821 10.798661 19.745290 2.478009 0.000000 0.000000 0.000000 
0.000170 0.940777 0.000769 -0.216726 -1.994517 8.412092 6.096118 -0.370133 -5.103139 0.829680 0.097462 -4.542479 1.491048 5.974093 8.898058 0.000000 0.000000 0.000000 -4.873345 0.675825 -7.582830 -1.938670 0.053492 -2.432378 -1.317278 -7.302888 10.540966 0.000000 0.000000 0.000000 5.918654 0.479487 -7.327268 -3.249270 1.452043 -5.748110 -4.572702 3.618966 5.447817 2.423758 -0.635792 -10.120724 0.000000 0.000000 0.000000 -16.152914 1.636548 -3.011425 -55.767162 -9.320883 -2.306698 -7.569670 -12.545606 1.223903 0.000000 0.000000 0.000000 12.557796 -8.587649 -4.725182 63.673473 2.584843 -4.537558 10.660006 19.761117 2.456554 0.000000 0.000000 0.000000 
0.000076 0.941265 0.000774 -0.118609 -1.840200 8.692023 6.089162 -0.385180 -5.337847 0.767253 0.100737 -4.510199 1.605342 6.191731 8.917303 0.000000 0.000000 0.000000 -4.843545 0.677887 -7.581065 -2.257841 0.041733 -3.059020 -1.453495 -7.772484 11.307653 0.000000 0.000000 0.000000 5.771310 0.487098 -7.531577 -3.290118 1.466551 -6.051921 -4.441747 3.352741 5.616147 2.211563 -0.537170 -9.889889 0.000000 0.000000 0.000000 -16.479357 1.898265 -3.145203 -55.904505 -9.868492 -2.063148 -7.487809 -11.986388 1.165290 0.000000 0.000000 0.000000 12.189606 -8.742690 -4.773649 64.109054 2.320562 -4.726632 10.638210 19.731879 2.440942 0.000000 0.000000 0.000000 
-0.000009 0.941405 0.000680 -0.104190 -1.517805 8.788470 5.981924 -0.403257 -5.622570 0.812527 0.093650 -4.407448 1.525708 6.164550 9.215974 0.000000 0.000000 0.000000 -4.670581 0.676193 -7.541253 -2.502369 0.046803 -3.284823 -1.510004 -7.868493 11.407935 0.000000 0.000000 0.000000 5.638331 0.476385 -7.517908 -3.173360 1.426280 -5.731826 -4.548100 2.853821 5.357557 2.095581 -0.430492 -10.337197 0.000000 0.000000 0.000000 -16.378773 1.797769 -3.027006 -56.103793 -10.103345 -1.934266 -7.760848 -12.022866 1.200417 0.000000 0.000000 0.000000 12.224300 -8.713580 -4.806167 64.371346 1.960954 -4.936840 10.560289 20.075451 2.463170 0.000000 0.000000 0.000000 
